<svg width="200" height="100" viewBox="25 0 200 100" xmlns="http://www.w3.org/2000/svg"><g fill="none" fill-rule="evenodd"><path fill="#333" d="M67.863 95.871h10.51v-.642h-10.51z"/><path d="M25 0h200v99H25z"/><path fill="#333" d="M91.102 90.726h1.074v7.584h-.611v-6.996h-.02l-.797 6.996h-.863l-.804-6.996h-.02v6.996h-.604v-7.584h1.068l.779 6.786h.019l.779-6.786M94.892 90.726h1.84v.588h-1.145v2.763h1.094v.589h-1.094v3.057h1.146v.587h-1.84v-7.584M100.176 91.314h-.779v-.588h2.252v.588h-.778v6.996h-.695v-6.996M109.237 90.726h.695v6.566c0 .755-.431 1.08-1.081 1.08-.74 0-1.088-.377-1.088-1.049V96.23h.695v1.093c0 .325.18.462.393.462.219 0 .386-.137.386-.451v-6.608M113.555 90.726h1.84v.588h-1.145v2.763h1.094v.589h-1.094v3.057h1.146v.587h-1.84v-7.584M119.212 94.077c.328 0 .515-.095.515-.547v-1.701c0-.441-.232-.515-.586-.515h-.386v2.763h.457zm.547 1.05c0-.368-.219-.461-.547-.461h-.457v3.644h-.695v-7.584h1.294c.663 0 1.068.115 1.068.871v1.924c0 .587-.219.788-.753.818v.022c.49.03.785.178.785.702v3.247h-.695v-3.182zM124.547 97.134c0 .42.084.714.528.714s.521-.293.521-.714V92.03c0-.422-.077-.716-.521-.716s-.528.294-.528.716v5.104zm-.695-5.126c0-.747.283-1.282 1.223-1.282.933 0 1.216.535 1.216 1.282v5.146c0 .75-.283 1.282-1.216 1.282-.94 0-1.223-.533-1.223-1.282v-5.146zM129.644 90.726h1.84v.588h-1.151v2.763h1.094v.589h-1.094v3.057h1.152v.587h-1.84v-7.584M136.035 90.726h.605v7.584h-.985l-.875-6.743h-.02v6.743h-.611v-7.584h1.01l.85 6.492h.026v-6.492M145.81 90.726h1.069v7.584h-.605v-6.996h-.026l-.798 6.996h-.863l-.798-6.996h-.019v6.996h-.611v-7.584h1.075l.778 6.786h.02l.778-6.786M150.238 90.726h1.84v.588h-1.145v2.763h1.094v.589h-1.094v3.057h1.145v.587h-1.84v-7.584M156.493 90.726h.689v6.566c0 .84-.624 1.08-1.23 1.08-.579 0-1.21-.24-1.21-1.08v-6.566h.696v6.345c0 .546.18.714.528.714.353 0 .527-.168.527-.714v-6.345M162.066 91.83c0-.294-.07-.516-.399-.516-.321 0-.399.222-.399.515v.799c0 .241.039.483.161.683l1.1 1.89c.155.262.252.59.252.926v1.196c0 .715-.419 1.113-1.114 1.113-.765 0-1.132-.345-1.132-1.113v-1.039h.688v.998c0 .355.142.566.444.566.284 0 .419-.21.419-.566V96.22a1.35 1.35 0 0 0-.2-.725l-1.017-1.774c-.186-.326-.296-.579-.296-.967v-.914c0-.746.393-1.114 1.094-1.114.78 0 1.094.368 1.094 1.062v.966h-.695v-.925M172.119 95.871h10.509v-.642h-10.51zM89.493 18.792c0-.198-.045-.349-.264-.349-.225 0-.277.15-.277.349v.542c0 .163.032.327.11.462l.746 1.28c.11.179.174.4.174.628v.81c0 .485-.283.755-.753.755-.521 0-.772-.234-.772-.755v-.705h.47v.677c0 .242.096.385.302.385.193 0 .283-.143.283-.385v-.72a.943.943 0 0 0-.135-.49l-.695-1.203c-.122-.221-.2-.392-.2-.654V18.8c0-.506.264-.755.747-.755.521 0 .74.25.74.72v.654h-.476v-.627M91.674 23.183h.644v-5.138h-.644zM95.523 18.045h.418v5.138h-.67l-.591-4.569h-.013v4.57h-.418v-5.139h.682l.579 4.398h.013v-4.398M98.83 22.784c.316 0 .413-.1.413-.398v-3.544c0-.299-.097-.399-.412-.399h-.251v4.34h.25zm-.72-4.739h.804c.644 0 .798.327.798.833v3.472c0 .506-.154.833-.798.833h-.804v-5.138zM103.007 18.792c0-.198-.045-.349-.264-.349-.225 0-.276.15-.276.349v.542c0 .163.032.327.11.462l.746 1.28c.11.179.173.4.173.628v.81c0 .485-.29.755-.753.755-.52 0-.772-.234-.772-.755v-.705h.47v.677c0 .242.09.385.302.385.187 0 .284-.143.284-.385v-.72a.943.943 0 0 0-.135-.49l-.696-1.203c-.122-.221-.199-.392-.199-.654V18.8c0-.506.264-.755.746-.755.522 0 .734.25.734.72v.654h-.47v-.627M150.946 18.814c0-.513.225-.769.746-.769.47 0 .702.292.702.761v.499c0 .192-.039.47-.11.676l-.99 2.846h1.113v.4h-1.526v-.477l.96-2.82c.083-.24.115-.454.115-.703v-.406c0-.285-.09-.42-.283-.42-.193 0-.29.135-.29.42v.591h-.437v-.598M155.122 18.757c0-.128 0-.355-.29-.355-.289 0-.289.227-.289.355v3.8c0 .129 0 .356.29.356s.29-.227.29-.356v-3.8zm-1.023.05c0-.647.419-.762.734-.762.322 0 .734.115.734.761v3.701c0 .648-.412.762-.734.762-.315 0-.734-.114-.734-.762v-3.7zM158.43 18.578c-.11.092-.334.25-.47.32v-.476a2.63 2.63 0 0 0 .535-.377h.405v5.138h-.47v-4.605M162.208 18.757c0-.128 0-.355-.296-.355-.29 0-.29.227-.29.355v3.8c0 .129 0 .356.29.356.296 0 .296-.227.296-.356v-3.8zm-1.03.05c0-.647.412-.762.734-.762s.734.115.734.761v3.701c0 .648-.412.762-.734.762s-.734-.114-.734-.762v-3.7zM125.673 5.545c-.566.076-1.12.161-1.666.252.096-.33.115-.777.135-1.28.032-.788.07-1.755.328-2.179.341-.561 1.216-.678 1.692-.227.354.342.65 1.263.889 2.016.154.483.296.911.47 1.205a52.67 52.67 0 0 0-1.848.213m-7.433 3.42l-2.587.441c.496-.897 3.05-1.875 6.687-2.893-1.59.735-3.321 1.42-4.1 2.452m20.137-2.608l-.624.085c-.611-1.005-3.816-1.48-8.038-1.272l-.103-.54s-.978.186-1.165.057c0 0-.129-.415-.29-.91-.283-.875-.624-1.946-1.203-2.497-1.01-.968-2.748-.734-3.469.467-.412.683-.463 1.806-.502 2.725-.019.518-.038.953-.038.953-.148.174-1.14.252-1.14.252l.046.535c-4.216.914-7.26 2.234-7.588 3.38l-.708.096.129.97 24.822-3.33-.129-.971M118.974 27.938c-1.899-3.494-2.214-9.678-2.047-15.345h1.641c-.367 5.159.155 10.26.927 15.345h-.521zm24.236-14.253a.923.923 0 0 0-1.017-.82c-1.557.168-2.664.407-3.649.779l-.02-1.051h.747v-.98h-25.04v.98h.9c-.012.507-.025 1.013-.025 1.518-.103-.05-.213-.097-.316-.142-1.094-.471-2.29-.758-4.073-.95a.92.92 0 0 0-1.017.82.916.916 0 0 0 .817 1.015c1.596.172 2.632.415 3.54.806.354.151.695.33 1.042.537.058 4.88.612 9.41 2.967 12.308 2.44.448 5.136.626 7.832.677v.017c.31 0 .618 0 .927-.004.309.003.618.004.927.004v-.017c2.703-.05 5.4-.229 7.838-.677 2.44-3.007 2.948-7.773 2.967-12.864.096-.047.193-.09.29-.134.907-.392 1.95-.634 3.546-.806a.916.916 0 0 0 .817-1.016zM141.872 10.096c1.93-.569 2.407-1.867 2.818-4.271.766 2.452-.321 3.931-2.818 4.271M140.31 7.954c1.544-1.56-.502-5.841 1.242-7.275-3.07.654-.708 5.425-1.242 7.275"/><path d="M136.723 10.252c9.699 1.131 4.627-5.915 8.193-8.287-5.657 1.062 1.068 7.545-8.193 8.287M55.326 55.103c3.328-.38 4.447-1.887 4.023-5.918-.406-3.809-1.918-5.139-5.406-4.741l-1.172.135c.419 3.558.83 7.116 1.249 10.674l1.306-.15zm-7.124.81a565.89 565.89 0 0 1 2.066-.257c-.431-3.526-.862-7.052-1.3-10.578-.695.086-1.397.173-2.098.262-.084-.634-.16-1.268-.245-1.901a615.12 615.12 0 0 1 6.919-.834c6.268-.715 9.511 1.862 9.93 6.13.418 4.258-2.079 7.56-8.141 8.25-2.298.263-4.595.54-6.886.83-.084-.634-.161-1.268-.245-1.901zM69.742 49.16c1.332-.12 2.658-.234 3.99-.345a846.714 846.714 0 0 0-2.394-5.234l-.09.008a870.049 870.049 0 0 0-1.506 5.571zm4.737 1.338c-1.738.143-3.47.293-5.207.451-.238.928-.482 1.857-.72 2.786.637-.06 1.274-.117 1.91-.174l.175 1.909a633.31 633.31 0 0 0-5.805.546c-.065-.636-.123-1.271-.187-1.907l1.654-.161a962.908 962.908 0 0 1 3.765-13.063c1.287-.114 2.568-.223 3.855-.328a932.276 932.276 0 0 1 5.85 12.243l1.795-.13.135 1.911c-2.638.188-5.277.393-7.922.616-.051-.637-.103-1.273-.16-1.91.688-.058 1.37-.114 2.052-.169-.392-.874-.791-1.747-1.19-2.62zM89.192 54.129c-4.196.247-7.465-2.602-7.793-7.085a7.51 7.51 0 0 1 7.015-8.09c1.956-.116 3.404.47 4.402 1.564l.405-1.784c.714-.037 1.429-.072 2.143-.106l.27 5.631c-.862.041-1.73.085-2.593.129-1.023-2.593-2.31-3.76-4.119-3.655-2.162.125-3.655 1.9-3.391 5.878.231 3.626 1.634 5.65 4.17 5.503 1.01-.06 1.634-.511 2.066-1.087.476-.6.656-1.579.598-2.634l-.02-.395c-.849.045-1.698.092-2.554.141-.032-.637-.07-1.275-.11-1.913 2.697-.155 5.387-.292 8.084-.411.025.638.051 1.276.083 1.914l-1.763.08.27 5.763c-.688.032-1.383.066-2.072.101l-.985-2.133c-.669 1.383-1.879 2.458-4.106 2.589M99.288 51.643c.688-.03 1.383-.058 2.078-.085-.141-3.55-.283-7.1-.418-10.65l-2.117.088-.078-1.914c4.91-.21 9.828-.36 14.744-.454l.097 5.152-2.034.042c-.643-2.738-1.01-3.261-2.986-3.209a682.48 682.48 0 0 0-3.803.115c.051 1.46.096 2.919.148 4.38.418-.015.836-.029 1.255-.041 1.306-.04 1.415-.284 1.692-2.077.612-.018 1.217-.034 1.828-.05.045 1.96.096 3.92.148 5.879-.605.015-1.204.031-1.808.048-.329-1.796-.522-2.056-1.802-2.017l-1.255.04c.051 1.526.103 3.053.148 4.579 1.216-.04 2.432-.077 3.649-.11 2.33-.062 2.587-.858 3.076-3.931.676-.015 1.351-.029 2.02-.041.04 1.907.071 3.816.11 5.724-4.872.09-9.743.24-14.609.447-.032-.638-.058-1.276-.083-1.915M124.425 38.628v1.871c-.772.001-1.551.004-2.323.009l.058 10.746a694.79 694.79 0 0 1 2.58-.008c1.828 0 2.22-.439 3.23-4.114l1.835.01c-.013 1.997-.026 3.993-.045 5.99a613.313 613.313 0 0 0-13.412.052c-.013-.639-.019-1.278-.032-1.916.695-.01 1.384-.02 2.079-.027-.039-3.553-.084-7.106-.123-10.658-.701.008-1.409.018-2.117.028-.006-.639-.02-1.277-.026-1.915 2.768-.041 5.529-.064 8.296-.068M131.6 51.2c.702.008 1.41.016 2.118.026.051-3.553.103-7.104.148-10.657-.72-.01-1.442-.018-2.163-.026.013-.638.02-1.277.026-1.915 2.722.028 5.445.073 8.173.137-.012.639-.032 1.277-.045 1.916-.72-.017-1.441-.033-2.162-.047l-.212 10.655 2.123.046c-.013.639-.025 1.278-.045 1.916a610.505 610.505 0 0 0-7.986-.135c.006-.639.02-1.277.026-1.915M140.586 49.492c.032-1.343 1.036-2.332 2.31-2.295 1.094.032 1.911.697 1.873 1.908-.026.836-.535 1.48-1.262 1.79.38.495 1.107.782 1.982.81 1.384.046 2.156-.806 2.214-2.324.103-2.92.213-5.839.322-8.759-.772-.028-1.538-.055-2.304-.08.02-.638.045-1.276.064-1.914 2.748.09 5.496.198 8.238.325-.026.638-.058 1.275-.084 1.913a739.37 739.37 0 0 0-2.066-.092c-.115 2.626-.225 5.252-.34 7.878-.136 3.081-1.99 4.956-5.638 4.83-3.334-.112-5.361-1.721-5.31-3.99M160.67 52.164l1.866.112-.116 1.89a633.375 633.375 0 0 0-7.677-.423c.032-.638.058-1.276.09-1.914.695.034 1.384.068 2.079.104.18-3.548.366-7.095.553-10.643-.701-.036-1.41-.072-2.11-.106.031-.638.064-1.276.09-1.913 2.65.128 5.302.274 7.954.437l-.116 1.89-1.995-.119c-.103 1.803-.206 3.606-.316 5.408a580.751 580.751 0 0 1 6.088-5.045l-1.898-.126c.039-.63.077-1.26.122-1.89 2.188.142 4.376.294 6.558.458-.045.637-.09 1.274-.142 1.91l-1.898-.139a425.029 425.029 0 0 0-4.325 3.477c1.59 2.407 3.16 4.819 4.711 7.237.547.04 1.088.081 1.635.123-.045.637-.097 1.274-.148 1.91a605.95 605.95 0 0 0-7.671-.538c.038-.629.083-1.26.122-1.888l1.705.11a833.661 833.661 0 0 0-3.076-4.875c-.644.52-1.274 1.041-1.911 1.564l-.174 2.99M173.83 49.866c.676.053 1.359.109 2.034.164.792 2.541 1.963 3.763 4.396 3.982 1.634.147 2.625-.53 2.735-1.67.129-1.338-1.39-1.815-3.656-2.567-2.451-.793-5.212-1.832-4.961-5.058.206-2.677 2.786-4.399 5.792-4.133 1.692.15 3.102.878 3.797 1.962.218-.504.43-1.007.643-1.51l2.066.2-.502 5.128-2.053-.198c-.753-2.482-1.815-3.557-3.803-3.734-1.57-.139-2.49.646-2.575 1.634-.122 1.449 1.558 1.92 3.81 2.656 2.44.796 5.104 1.838 4.788 4.97-.276 2.74-2.741 4.459-6.01 4.162-1.886-.17-3.47-1.057-4.235-2.138-.238.555-.47 1.111-.695 1.667l-1.995-.161c.135-1.786.283-3.571.425-5.356M187.12 54.352c.689.07 1.377.142 2.066.215l1.12-10.6a583.06 583.06 0 0 0-2.105-.218l.193-1.906c4.898.5 9.789 1.057 14.68 1.673-.219 1.704-.431 3.408-.644 5.113-.676-.085-1.351-.169-2.02-.251-.252-2.803-.535-3.373-2.504-3.605-1.261-.15-2.523-.294-3.784-.435l-.483 4.355 1.249.141c1.3.148 1.441-.077 1.975-1.812.605.07 1.21.142 1.822.214-.238 1.946-.47 3.893-.702 5.838l-1.802-.212c-.064-1.825-.219-2.11-1.493-2.255-.418-.048-.83-.095-1.248-.14-.174 1.516-.341 3.034-.509 4.552 1.21.135 2.42.274 3.63.416 2.317.274 2.69-.477 3.617-3.448l2.008.25c-.238 1.894-.483 3.787-.721 5.681a606.575 606.575 0 0 0-14.544-1.66c.07-.635.135-1.27.199-1.906M93.521 75.926c.83-.043 1.66-.086 2.49-.127.046.872.085 1.746.13 2.618-3.405.168-6.81.365-10.207.593l-.174-2.646c.92-.062 1.84-.122 2.76-.179-.308-4.909-.61-9.818-.92-14.728-.939.06-1.885.12-2.825.183-.064-.882-.122-1.764-.18-2.646 3.56-.238 7.118-.445 10.683-.62.039.873.084 1.747.129 2.619-.895.044-1.79.09-2.677.137.135 2.497.264 4.993.399 7.49a569.59 569.59 0 0 1 7.343-7.854c-.85.034-1.7.07-2.549.109a356.63 356.63 0 0 0-.122-2.62 594.57 594.57 0 0 1 8.823-.332c.032.883.058 1.767.084 2.651-.85.026-1.7.053-2.549.083-1.77 1.8-3.52 3.607-5.251 5.422a627.916 627.916 0 0 1 7.298 9.274l2.181-.066.078 2.652c-3.411.096-6.816.223-10.214.378-.045-.873-.083-1.746-.122-2.619.76-.035 1.513-.068 2.272-.1a613.655 613.655 0 0 0-4.801-6.25c-.772.81-1.538 1.624-2.297 2.439.07 1.38.148 2.76.218 4.14M123.903 67.123c-.006-5.517-1.808-8.02-5.155-7.985-3.346.038-4.91 2.576-4.794 8.091.11 5.55 1.905 7.98 5.155 7.944 3.243-.032 4.807-2.498 4.794-8.05zm-15.49.268c-.193-6.277 4.337-10.689 10.4-10.753 6.223-.066 10.695 4.099 10.631 10.468-.064 6.312-4.582 10.504-10.406 10.567-5.972.064-10.426-3.91-10.625-10.282zM131.652 70.691c.907.01 1.815.022 2.729.036 1.274 3.437 2.928 5.016 6.184 5.098 2.175.058 3.437-.968 3.488-2.552.058-1.859-1.995-2.387-5.077-3.22-3.328-.872-7.099-2.042-7.06-6.523.032-3.718 3.327-6.341 7.388-6.247 2.278.052 4.215.934 5.245 2.37l.734-2.143c.926.031 1.853.064 2.786.098l-.27 7.13c-.914-.035-1.834-.067-2.755-.097-1.203-3.364-2.715-4.755-5.393-4.818-2.11-.05-3.269 1.12-3.295 2.491-.032 2.014 2.246 2.508 5.316 3.324 3.32.88 6.957 2.09 6.777 6.447-.155 3.81-3.282 6.394-7.646 6.278-2.503-.067-4.685-1.142-5.798-2.563l-.772 2.365c-.888-.013-1.77-.024-2.658-.033l.077-7.44M154.016 75.508c1.055.052 2.11.107 3.166.165.277-5.033.553-10.067.824-15.1l-.786-.042c-2.548-.134-3.134.664-4.517 5.573-.824-.038-1.648-.074-2.465-.11.116-2.69.225-5.38.341-8.07a608.01 608.01 0 0 1 20.285 1.198c-.206 2.686-.412 5.371-.612 8.056-.823-.063-1.64-.123-2.464-.182-.798-5.039-1.281-5.9-3.83-6.067l-.785-.05c-.321 5.03-.643 10.06-.959 15.092a624.5 624.5 0 0 1 3.16.208c-.064.883-.122 1.764-.18 2.646a594.724 594.724 0 0 0-11.307-.668c.045-.883.09-1.766.129-2.649" fill="#333"/></g></svg>