<svg version="1.1" xmlns="http://www.w3.org/2000/svg" xmlns:xlink="http://www.w3.org/1999/xlink" x="0px" y="0px" viewBox="0 0 159 65" xml:space="preserve">
  <path d="M157.8,57.3c0,0,1.2-7.9,1.2-24.8s-1.2-24.8-1.2-24.8c-0.5-3.1-3.4-6-6.5-6.5c0,0-7.9-1.2-24.8-1.2h-94
                                C15.6,0,7.7,1.2,7.7,1.2c-3.1,0.5-6,3.4-6.5,6.5c0,0-1.2,7.9-1.2,24.8s1.2,24.8,1.2,24.8c0.5,3.1,3.4,6,6.5,6.5
                                c0,0,7.9,1.2,24.8,1.2h94c16.9,0,24.8-1.2,24.8-1.2C154.4,63.3,157.3,60.5,157.8,57.3z M63.7,19.8L63.3,25l-6.1,20.5
                                c-0.1,0.3-0.4,0.5-0.7,0.5h-4c-0.4,0-0.7-0.3-0.7-0.5l-4.3-15.6l-4.3,15.6c-0.1,0.3-0.4,0.5-0.6,0.5h-4c-0.3,0-0.6-0.3-0.6-0.5
                                L31.8,25l-0.6-5.1v-0.1c0-0.4,0.3-0.8,0.8-0.8h3.4c0.4,0,0.7,0.3,0.8,0.7l0.4,5.3l3.9,14.4L44.8,24c0.1-0.3,0.4-0.5,0.7-0.5h1.8h1.8
                                c0.3,0,0.6,0.3,0.6,0.5l4.6,15.3l4-14.6l0.4-5.3c0-0.4,0.4-0.7,0.8-0.7h3.4c0.4,0,0.8,0.3,0.8,0.8V19.8z M72.5,45.2
                                c0,0.4-0.3,0.8-0.8,0.8h-3.6c-0.4,0-0.8-0.3-0.8-0.8V19.8c0-0.4,0.3-0.8,0.8-0.8h3.6c0.4,0,0.8,0.3,0.8,0.8V45.2z M93.3,22.8
                                c0,0.4-0.3,0.8-0.8,0.8H81.9V30h9.8c0.4,0,0.8,0.3,0.8,0.8v3c0,0.4-0.3,0.8-0.8,0.8h-9.8v6.9h10.7c0.4,0,0.8,0.3,0.8,0.8v3
                                c0,0.4-0.3,0.8-0.8,0.8H77.5c-0.4,0-0.8-0.3-0.8-0.8V19.8c0-0.4,0.3-0.8,0.8-0.8h15.1c0.4,0,0.8,0.3,0.8,0.8V22.8z M118.6,45.2h-0.1
                                c0,0.4-0.3,0.8-0.8,0.8h-3.5c-0.4,0-0.5-0.3-0.8-0.5l-12-17.5v17.3c0,0.4-0.3,0.8-0.8,0.8h-3.4c-0.4,0-0.8-0.3-0.8-0.8V19.8
                                c0-0.4,0.3-0.8,0.8-0.8h3.5c0.4,0,0.5,0.3,0.8,0.5l12,17.5V19.8c0-0.4,0.3-0.8,0.8-0.8h3.5c0.4,0,0.8,0.3,0.8,0.8V45.2z M127.8,45.2
                                c0,0.4-0.3,0.8-0.8,0.8h-3.6c-0.4,0-0.8-0.3-0.8-0.8V19.8c0-0.4,0.3-0.8,0.8-0.8h3.6c0.4,0,0.8,0.3,0.8,0.8V45.2z"></path>
</svg>
